/* XPM */
static char *_9756d52475b4092def27a31a44963db9LV50KUPCoKTOtYm[] = {
/* columns rows colors chars-per-pixel */
"40 40 111 2 ",
"   c #93C657",
".  c #090501",
"X  c #231A11",
"o  c #26231E",
"O  c #2B261D",
"+  c #34271E",
"@  c #332B1E",
"#  c #272320",
"$  c #2B2722",
"%  c #2F2B23",
"&  c #2F2B28",
"*  c #342B22",
"=  c #392D24",
"-  c #332E2B",
";  c #373026",
":  c #3C3226",
">  c #36312C",
",  c #3C342B",
"<  c #3F3A2D",
"1  c #353333",
"2  c #3B3632",
"3  c #3B3831",
"4  c #36373A",
"5  c #393738",
"6  c #393A3D",
"7  c #4A341F",
"8  c #443426",
"9  c #4C3623",
"0  c #4F3924",
"q  c #42352B",
"w  c #49362A",
"e  c #443A2C",
"r  c #4B3B2C",
"t  c #503722",
"y  c #523A25",
"u  c #543D2B",
"i  c #5A3E2A",
"p  c #4A3731",
"a  c #453C32",
"s  c #4B3D32",
"d  c #423D3A",
"f  c #493F3C",
"g  c #533E32",
"h  c #603F2C",
"j  c #5D442D",
"k  c #5E492F",
"l  c #464033",
"z  c #4C4234",
"x  c #45413D",
"c  c #4C443B",
"v  c #4E483B",
"b  c #544434",
"n  c #5B4434",
"m  c #554936",
"M  c #5C4934",
"N  c #52453B",
"B  c #58463A",
"V  c #55493B",
"C  c #5B4B3C",
"Z  c #5D523D",
"A  c #63452D",
"S  c #68422B",
"D  c #65492D",
"F  c #6E4D2E",
"G  c #71502D",
"H  c #634733",
"J  c #644B35",
"K  c #6A4D34",
"L  c #634739",
"P  c #644C3B",
"I  c #6A4F39",
"U  c #714B34",
"Y  c #6F5134",
"T  c #64513D",
"R  c #6C523C",
"E  c #735234",
"W  c #71543B",
"Q  c #75583D",
"!  c #7B5A3D",
"~  c #3A3A44",
"^  c #383E4A",
"/  c #413F40",
"(  c #39404C",
")  c #454243",
"_  c #494441",
"`  c #4C4845",
"'  c #42444C",
"]  c #4B494C",
"[  c #514741",
"{  c #544C41",
"}  c #5B4D42",
"|  c #524A48",
" . c #575145",
".. c #5D5244",
"X. c #464950",
"o. c #494C52",
"O. c #4D515A",
"+. c #614F43",
"@. c #635343",
"#. c #6C5542",
"$. c #635844",
"%. c #6A5945",
"&. c #64564B",
"*. c #675B49",
"=. c #6B5C4B",
"-. c #745942",
";. c #795A42",
":. c #725B4A",
">. c #6E614E",
",. c #6F6252",
"<. c #746455",
/* pixels */
"                                                                                ",
"                . 2 x e c c d v N s v N a v x                                   ",
"            % % : s V $.*.,.<.<.<.<.<.=...m l ; X * .                           ",
"          < z z } =.=.=.%.@.*.%.%.&.%.%.>.>.%.Z z s a                           ",
"        v e v $.*.$.V V C Z T m V ....C C T %.<.%.m e f                         ",
"    . c < b Z >.V V } ..C z m b V b N C C ..m C =...N a /                       ",
"    z < b $.*.z z &.N w e r r b g w r p 8 Z %.B V =.%.z s [                     ",
"  x l z Z Z b C C e e N s g M b L n n b l r q V V V *.%.s a c                   ",
"  l 8 B T V } z 2 p r b b b R R Q D H R H j u r m ..m Z V = l                   ",
"  l w C T C ` w r b n P H H R W ;.H H W I I n g r { V T V < e                   ",
"  c s C m } f , p n M R J P R R -.L #.#.I :.P B w V V m N < ;                   ",
"  c b ..b } d , f } C =.B C P #.:.b B +.#.%.N C r d V m V q ,                   ",
"  a b &.V { 2 p N @.+.:.C C +.#.-.B C K K :.m M b , V Z } q ,                   ",
"  < a &.b c 2 b P W E ;.K K I W Q @.@.Y U :.T K C , V Z b = ;                   ",
"  < , ..z r q B K E E ;.I K Q U #.c c #.P } f +.} q V V z @ *                   ",
"  < < ..m e q N P I W ;.W P #.I f ^ ^ ` N ' ~ / g 2 N C N @ *                   ",
"  3 < @.V s 8 V K Q Y Q R R R T _ ~ ~ { a ~ ~ _ z - N Z v @ @                   ",
"  < : Z b p = N J R R Q R Y R R @.f f @.C { f C C , V C v * *                   ",
"  , : ..b d , v +.%.R Q H H R K ! K H E G -.P F P q m C N * =                   ",
"  3 < @.C s > c | c b %.P K -.H Y H R K D #.H D m , V P [ * =                   ",
"  , q %.m e > 6 o.) a +.L C R M &.{ } @.C &.V +.b ; V @.{ @ @                   ",
"  , , ..m e > ' O.) p @.B u P B P b b L n @.B n B ; N Z v @ @                   ",
"  > q +.m l 3 o.o.` a T H k R J U D S U S R D S n , b C v @ *                   ",
"  2 < +.m e 1 ( ] { r K D H R k W M k #.I L j J j = m B N = =                   ",
"  q e  .V a > z g N b J H A K M P H A K H I A A n : V P N + =                   ",
"  < <  .b a 2 z n C j R J h K H L f a P n f d b b ; V P v * *                   ",
"  , 8 { b e > b j J D K H h K j ) 6 4 _ d 6 4 / s - _ } v @ *                   ",
"  , < V b s , g j J D K S i H H 6 1 1 / 5 5 1 5 p & c N v @ *                   ",
"  < ;  .b r ; r t A A S i u H n b 2 2 B g f 2 w r ; m m v @ =                   ",
"  : <  .b z , r 7 j i j t 9 n i H r w A i b w t 0 ; b B v @ *                   ",
"  < , V z a > r w n u n u w u u b u 9 u y M u 8 r = z b c * *                   ",
"  : ; V z a > p p b u b z p n i n c p j i N s u p - s b c * *                   ",
"  > : V c c = < r r s b r w g r b r w r r B w w , = s N z @ *                   ",
"  > : b s < * , w w u b y w g y n u w u u n 0 0 q = a N b @ -                   ",
"  , ; m b e , e y y j j y 9 u u j t t u u j t t r : c V z + %                   ",
"  , = b z q ; < t t y u 9 9 y t y 9 9 y 9 u 7 7 8 @ e c e @ *                   ",
"  > : e < ; , p w w 8 8 w 8 w 8 8 8 8 r 8 w 8 8 q = 2 , < ; %                   ",
"  o O O $ $ - > > , , , , , , , , > , < > ; , : ; * & $ O O O                   ",
"                                                                                ",
"                                                                                "
};
