/* XPM */
static char *_e3509802c1b4e54df7888c1b5b5f532p60w6Kt5JYZ6Amq5[] = {
/* columns rows colors chars-per-pixel */
"40 40 179 2 ",
"   c #9CCC65",
".  c #94C859",
"X  c #8BC34A",
"o  c #8DC44D",
"O  c #9ACB61",
"+  c #9CCC66",
"@  c #94C858",
"#  c #8BC349",
"$  c #9ACB62",
"%  c #9DCC66",
"&  c #8EC155",
"*  c #7CB342",
"=  c #7DB543",
"-  c #89C149",
";  c #93C757",
":  c #84BB46",
">  c #80B646",
",  c #98C961",
"<  c #95C859",
"1  c #9DCD66",
"2  c #8AC349",
"3  c #7BB241",
"4  c #7DB442",
"5  c #89C148",
"6  c #8BC44A",
"7  c #99C961",
"8  c #91C557",
"9  c #84BC46",
"0  c #85BC48",
"q  c #8CC053",
"w  c #90C456",
"e  c #93C756",
"r  c #92C656",
"t  c #8EC255",
"y  c #8CC054",
"u  c #8ABE52",
"i  c #8BBF52",
"p  c #91C655",
"a  c #86BD49",
"s  c #83BA45",
"d  c #84BB47",
"f  c #8BC14E",
"g  c #7BB242",
"h  c #7CB341",
"j  c #8BBF53",
"k  c #8DC054",
"l  c #99CA62",
"z  c #80B647",
"x  c #83BB46",
"c  c #7DB542",
"v  c #8EC256",
"b  c #7EB543",
"n  c #7FB545",
"m  c #8CBF53",
"M  c #95C75E",
"N  c #7FB646",
"B  c #8ABE50",
"V  c #9BCB63",
"C  c #8ABF51",
"Z  c #98C95F",
"A  c #83B94A",
"S  c #8AC149",
"D  c #81B746",
"F  c #8BBE52",
"G  c #96C75E",
"H  c #93C758",
"J  c #8AC14B",
"K  c #95C75D",
"L  c #7DB343",
"P  c #8EC54E",
"I  c #8CC34D",
"U  c #82B948",
"Y  c #85BB48",
"T  c #8BC24B",
"R  c #8DC44E",
"E  c #8EC550",
"W  c #96C85D",
"Q  c #8CC44D",
"!  c #8DC055",
"~  c #7DB443",
"^  c #84BB48",
"/  c #8DC44C",
"(  c #7CB242",
")  c #82BA45",
"_  c #9DCD67",
"`  c #8AC04E",
"'  c #93C857",
"]  c #92C655",
"[  c #86BD48",
"{  c #92C755",
"}  c #8CC44C",
"|  c #88C048",
" . c #85BD48",
".. c #8CC24F",
"X. c #87BF48",
"o. c #8EC44E",
"O. c #95C85A",
"+. c #98CA5F",
"@. c #8FC550",
"#. c #7FB644",
"$. c #88BF48",
"%. c #83BA46",
"&. c #91C554",
"*. c #99CA60",
"=. c #8CC34B",
"-. c #92C757",
";. c #7FB744",
":. c #8EC54F",
">. c #8AC249",
",. c #7BB341",
"<. c #8BC14D",
"1. c #91C457",
"2. c #94C759",
"3. c #8FC256",
"4. c #8EC156",
"5. c #8ABF4F",
"6. c #85BD47",
"7. c #89BE50",
"8. c #8BC04E",
"9. c #8BC34B",
"0. c #8DC154",
"q. c #95C65D",
"w. c #98C960",
"e. c #7FB546",
"r. c #7EB544",
"t. c #97C85F",
"y. c #81B747",
"u. c #9BCC64",
"i. c #8AC24A",
"p. c #97C860",
"a. c #91C556",
"s. c #97C95E",
"d. c #8BC24C",
"f. c #99CA61",
"g. c #82B848",
"h. c #93C657",
"j. c #7BB342",
"k. c #83BB45",
"l. c #8ABE51",
"z. c #8FC355",
"x. c #90C652",
"c. c #90C551",
"v. c #8BC052",
"b. c #9BCB62",
"n. c #97C85E",
"m. c #8CC24D",
"M. c #97C95F",
"N. c #7EB444",
"B. c #8CC34C",
"V. c #80B744",
"C. c #8AC14A",
"Z. c #81B847",
"A. c #82B849",
"S. c #96C85E",
"D. c #8CC250",
"F. c #8DC155",
"G. c #91C654",
"H. c #86BC4B",
"J. c #97CA5E",
"K. c #92C756",
"L. c #9ACB63",
"P. c #9ACA62",
"I. c #98CA5E",
"U. c #87BE4B",
"Y. c #86BD4A",
"T. c #8CC14F",
"R. c #87BD4C",
"E. c #82B847",
"W. c #84B94B",
"Q. c #88BF49",
"!. c #8CC44A",
"~. c #89BE4E",
"^. c #9BCC63",
"/. c #94C65C",
"(. c #87BD4A",
"). c #94C857",
"_. c #8BC14F",
"`. c #8DC250",
"'. c white",
/* pixels */
"    . X o O + @ # o $ % & * = - X ;         . X X X X : * > , % . X X X X X X X ",
"    < X o $ 1 @ 2 o $ 1 & 3 4 5 # ; 1 % % 1 < # X X 6 : 3 > 7 1 < # X X X X X X ",
"  + 8 9 0 q & w e r t & y u i p e w & & & & w e p a 9 : s d q & w e p a 9 f e e ",
"  % & g * h 3 j 1 , > 3 u 1 +   1 k 3 * * 3 u 1 l z 3 x X - c 3 u 1 l z 3 j %   ",
"  + v 4 b n n m l M N 3 B V $ l l m 4 = = 4 C V Z A n 0 X S D n F l G > 3 i V $ ",
"    H 5 J K , y z > L * d P I U z Y - - - - T R E W , p X Q W , ! z > ~ * ^ P R ",
"  % . # / O 1 y 3 * * ( ) # - b 3 s X X X X X X o $ 1 @ X o $ _ & 3 3 * * x X X ",
"@ @ @ ; @ V + w s x x x ` ' ] [ s f ' { } X | :  .] @ ..x [ r @ w j i ^ x X.X X ",
"X 2 e % +     @ X X X # e % V o.# ' % $ o X 9 g ~ - X : g b - # e 1 V o.X X X X ",
"X X { $ $     O.o o o o e $ +.o # { $ +.@.o a b #.$.- %.* b $.- &.$ *.@.o o o o ",
"X X =.o @.$   V $ $ $ $ . o o X X } o @.+.$ -.- | ;.b 4 * * b b 0 o :.+.$ $ $ $ ",
"X X X 2 } $ 1 + + + % 1 < X X X X X 2 o $ 1 < X >.b 3 ,.,.,.3 3 ) X o $ 1 +     ",
"9 9 <.e r t & 1.< 2.3.4.5.9 6.>.X @.e r t 4.5.9 0 7.u u u u u u 8.X 9.0.& q.    ",
"* 3 u 1 l z 3 x X - c 3 * * ~ - # ; % , > 3 * * n w.%   + + % 1 < X - b 3 j %   ",
"n n F l G > * x X S D e.r.~ #.T / ; V t.y.~ = ~ D w.  u.$ $ l l ; X i.D n q V $ ",
"p.w.! z > ~ * x X Q W , a.5 T s.$ @ R o - - - - d.f.+ O.R I g.z 0 X } W w.h.R R ",
"  1 & 3 j.h 3 s # o $ 1 < X o $ 1 @ 2 # X X X # / O % @ # - 4 3 ) # / $ 1 @ 2 # ",
"  + 1.k.d l.j z.; ; @ @ x.X 9.q y w ; { } X @.; ; @ @ c.X 9.v.j z.; ; @ @ @ ; ; ",
"  + < # o $ % + + $ o # X X S b 3 j 1 $ o 2 e % V R # X X o b.1 % % V o 2 ; % + ",
"$ $ . o @.$   V $ +.@.o 9.- | b ,.l.7 n.E o e $ +.m.- i.X o n., , , M.@.o ; $ $ ",
"o o e $ $     O.o @.+.b.0.b b * * N.> A n.$ . o B.V.= 9 X C.Z.> > > A.S.$ @ o o ",
"# 2 e 1 % % 1 @ # o $ 1 & 3 3 ,.,.3 3 N 7 _ < # - b g %.X - = g 3 3 n p.% @ 2 # ",
"e e w & & & 4.D.X } ; < w u u u u u u F F.& w e G.0 ) ` e &.0 ) H.u y l   J.K.e ",
"  1 & 3 * * 3 x X X X # e %         1 , N 3 u % V R # ; % $ o # e % +           ",
"  + v 4 = = ~ 0 o } i.- G.L.L.    u.$ M.A.n i V *.@.} ; V *.:.} r l l $ $ P.7 l ",
"    H - - - 5 p $ S.Z.b 0 R @.$ + O.o @.S.w.H R @.I.$ @ o @.+.$ t z g.m.P U.z y.",
"  % . # X X X ; % , > 3 ) # } O % @ 2 o $ 1 < 2 } $ 1 @ 2 o $ 1 & 3 4 - 6 x 3 3 ",
"@ @ @ ; K.} # ; + f.Y.s ` ; ; @ @ c.X } e @ @ ; ; & k T.X } e @ w j i 0 : R.m j ",
"# 2 e % V R 2 ; + $ o # e % V o 2 X X X X 2 e 1 l z 3 x X X X 2 e 1 l z 3 j 1 % ",
"o o e $ *.@.o ; $ +.@.o r , M.@.o } X X o o r , G E.= x - C.o o @   l W.e.q $ $ ",
"$ $ . o :.+.$ @ o @.+.$ t N A.S.$ e X o +.b.t > D Q.- : = Z.n.$ V     7 , ; o o ",
"+ % . 2 } $ 1 @ # o b._ & 3 n p.% @ 2 o $ 1 4.3 ~ - !.: 3 N 7 1 +       % @ 2 # ",
". . @ e r t 4.~.9 0 k 4.y l.y l   J.K.e . < 5.* 4 x 9 R.u F F.& 1.. O.V   J.K.e ",
"X 2 e 1 l z 3 * * * h 3 u 1         % $ o X 9 * * * 3 j 1 , > 3 ) X / O         ",
"o } r l G Z.~ 4 * * n n i V $ $ $ P.l M.o X 6.~ b n n q ^.t.y.4 : X } s.l P.$ $ ",
"O $ t z Z.Q.- %.* N /., H R R R o.U.z E.i.X >.- J K w.h.R o - - >.X i.E.z (.o.R ",
"+ 1 4.3 4 - X : 3 > 7 1 < X X X X x 3 4 - X X # / $ 1 @ X X X X X X - b 3 s # # ",
"@ @ D.x 0 p )._.s 0 r @ `.: : : : R.m v.9.X @.; ; @ @ ..x [ p ' c.X i.9 %.f ; ; ",
"X X X X o O % @ X X X X 9 * * * 3 m 1 $ o # e + L.R X : g > , % < X X X X ; +   ",
"X X X X o O + @ X X X X 9 * * * h j % $ o # e   $ R X : * > , % . X X X X ;     "
};
