/* XPM */
static char *_75623eeb05446edbd6f94ce21013fe2Pe8nTd9tjSXLQY8H[] = {
/* columns rows colors chars-per-pixel */
"40 40 216 2 ",
"   c #53161D",
".  c #7F2E00",
"X  c #8C2700",
"o  c #852D05",
"O  c #8C2C01",
"+  c #8D2E0B",
"@  c #922C02",
"#  c #9C2E02",
"$  c #972300",
"%  c #8B3002",
"&  c #8E310B",
"*  c #913202",
"=  c #9D3D04",
"-  c #92330B",
";  c #9C3E0B",
":  c #993906",
">  c #903512",
",  c #973D17",
"<  c #A13404",
"1  c #A43C04",
"2  c #A23D0A",
"3  c #8A3F20",
"4  c #993F24",
"5  c #9B4207",
"6  c #8C421D",
"7  c #894C1F",
"8  c #964516",
"9  c #93451C",
"0  c #9F4217",
"q  c #A44103",
"w  c #A3460B",
"e  c #A44C1E",
"r  c #A94B14",
"t  c #B14E15",
"y  c #8D4322",
"u  c #8A4728",
"i  c #934525",
"p  c #954A29",
"a  c #9D4D2D",
"s  c #9D4927",
"d  c #9C5426",
"f  c #8F4E32",
"g  c #9C5430",
"h  c #9D5D3D",
"j  c #AE4D24",
"k  c #A74C27",
"l  c #B34C29",
"z  c #A4542D",
"x  c #AC572E",
"c  c #A85425",
"v  c #BA522B",
"b  c #AA4F30",
"n  c #A75434",
"m  c #A95A33",
"M  c #A45B3B",
"N  c #AE5836",
"B  c #B25B35",
"V  c #B45E39",
"C  c #B95B35",
"Z  c #AE6837",
"A  c #AD633B",
"S  c #AD693A",
"D  c #B5653C",
"F  c #B96339",
"G  c #D97E2D",
"H  c #D77C33",
"J  c #A05A40",
"K  c #9F6442",
"L  c #AB6644",
"P  c #B36642",
"I  c #BC6542",
"U  c #957978",
"Y  c #CF8526",
"T  c #D9852C",
"R  c #D4853A",
"E  c #DB843B",
"W  c #D18A3B",
"Q  c #D88937",
"!  c #F2923C",
"~  c #ECAB3E",
"^  c #EAA73F",
"/  c #CB8349",
"(  c #DC8643",
")  c #D28B43",
"_  c #D48542",
"`  c #D8944B",
"'  c #D89147",
"]  c #CE9150",
"[  c #D69056",
"{  c #EBAC45",
"}  c #ECAC4A",
"|  c #F1AB44",
" . c #F5AA4D",
".. c #EEB04B",
"X. c #F3B24B",
"o. c #F9B24C",
"O. c #FFB94D",
"+. c #F8B147",
"@. c #EBA953",
"#. c #F8AC52",
"$. c #EDB354",
"%. c #E6B153",
"&. c #F3B454",
"*. c #F6BE52",
"=. c #FDB955",
"-. c #FFBE5A",
";. c #F2B258",
":. c #CD8E63",
">. c #C28A73",
",. c #D08F7B",
"<. c #C9977E",
"1. c #CA976A",
"2. c #EDB963",
"3. c #F7BF62",
"4. c #FCBA6A",
"5. c #FFC455",
"6. c #FFC856",
"7. c #FDC55C",
"8. c #FECA5D",
"9. c #F4C65D",
"0. c #EDC565",
"q. c #FDC563",
"w. c #FECA63",
"e. c #FCC36B",
"r. c #FDCB6C",
"t. c #F5C860",
"y. c #FFD062",
"u. c #FECC73",
"i. c #FDCD79",
"p. c #FBC677",
"a. c #FDD276",
"s. c #FCD57D",
"d. c #F5D477",
"f. c #BE979A",
"g. c #B88689",
"h. c #BEA19B",
"j. c #C49D84",
"k. c #CB9D84",
"l. c #C99D8C",
"z. c #C89786",
"x. c #D49C84",
"c. c #D19D88",
"v. c #C69E90",
"b. c #CC9D90",
"n. c #CBA285",
"m. c #C4A18B",
"M. c #CBA28E",
"N. c #D0AA86",
"B. c #CCA792",
"V. c #CBAA94",
"C. c #CAA39B",
"Z. c #CEAA99",
"A. c #C4AA9A",
"S. c #D5A793",
"D. c #D2B29C",
"F. c #D4B096",
"G. c #C5ABA4",
"H. c #C7A7A1",
"J. c #D3AEA2",
"K. c #CCB0A5",
"L. c #DDB5A3",
"P. c #D4B7A8",
"I. c #D3BEB9",
"U. c #FFC782",
"Y. c #FFCE89",
"T. c #FED284",
"R. c #FDD28A",
"E. c #F6D585",
"W. c #EBDB9F",
"Q. c #FFD297",
"!. c #F7D1A0",
"~. c #FCD9B1",
"^. c #FBE2A9",
"/. c #FEE4B4",
"(. c #FDEAB5",
"). c #F4EABA",
"_. c #FFEABB",
"`. c #F5E3B3",
"'. c #EBDEDC",
"]. c #ECDAD6",
"[. c #F2DFD1",
"{. c #DFE1D6",
"}. c #FEE6C3",
"|. c #FFEBC4",
" X c #FDECCB",
".X c #FFF0C2",
"XX c #EBE2DD",
"oX c #E7E5DA",
"OX c #FCECDF",
"+X c #F9E9DA",
"@X c #FAF2DB",
"#X c #ECDEE3",
"$X c #E3DEE2",
"%X c #F1DCE1",
"&X c #EBE5E3",
"*X c #EAEAE5",
"=X c #EBE5E7",
"-X c #F1E5E2",
";X c #F4EDE2",
":X c #FCEBE4",
">X c #FBEEED",
",X c #F7E7E8",
"<X c #EDF0E8",
"1X c #FDFCE2",
"2X c #FDF4EC",
"3X c #F7FAEF",
"4X c #FCFBEC",
"5X c #F5F0E9",
"6X c #FAEEF8",
"7X c #F4F3F3",
"8X c #FDF5F4",
"9X c #F6FCF5",
"0X c #FDFBF5",
"qX c #FEF5FC",
"wX c #F6FDFD",
"eX c #93C657",
/* pixels */
"eXeXeXeXeXeXeXeXeXeXeXeXeXeXeXeXeXeXeXeXeXeXeXeXeXeXeXeXeXeXeXeXeXeXeXeXeXeXeXeX",
"eXeXeXeXeXeXeXeXeXeXeXeXeXeXeXeXeXeXeXeXeXeXeXeXeXeXeXeXeXeXeXeXeXeXeXeXeXeXeXeX",
"eXeXeXeXeXeXeXeXeXeXeXeXeXeXeXeXeXeXeXeXeXeXeXeXeXeXeXeXeXeXeXeXeXeXeXeXeXeXeXeX",
"eXeXeXeXeXeXeXeXeXeXeXeXeXeXeXeXeXeXeXeXeXeXeXeXeXeXeXeXeXeXeXeXeXeXeXeXeXeXeXeX",
"eXeXeXeXeXeXeXeXeXJ.u y u y i 3 y 6 i y i y p 6 i p 6 i f A.eXeXeXeXeXeXeXeXeXeX",
"eXeXeXeXeXeXeXeX'.J.L D D D I D S D F D D D D Z F P P C e 1.[.eXeXeXeXeXeXeXeXeX",
"eXeXeXeXeXeXeXG.y S.8XwX7X8X8X2XqX8X8X9XqX8X2X9X9X7X1X/.p.W u v.eXeXeXeXeXeXeXeX",
"eXeXeXeXeXeX;XZ.A L.qX8X4X1X4X0X2X4X2X0X3X4X2X4X2X8X8X`.u.! e <.=XeXeXeXeXeXeXeX",
"eXeXeXeXeXJ.8 J.1XqXqX|.i.i.d.i.d.u.u.u.u.i.i.a.u.a.i.r.q.4.q.) 0 V.eXeXeXeXeXeX",
"eXeXeXeXeXV.> Z.qXqX4X/.q.O.~ | { { +.^ { ..{ ^ @.O.9.6.7.w.8.Q * m.eXeXeXeXeXeX",
"eXeXeXeXeXV.& B.qX XE.i.9.R q = 2 # w : 5 = = = 5 Y 7.8.5.9.6.Q @ j.eXeXeXeXeXeX",
"eXeXeXeXeXV.& Z.qX(.7.-.7._ @ a P V D A S M D e O / Q.i.7.w.r.E @ j.eXeXeXeXeXeX",
"eXeXeXeXeXB.& V.qX}.e.q.5.G % m.eXeXeXeXeXeXeXG.O x.0X(.r.3.q.R * n.eXeXeXeXeXeX",
"eXeXeXeXeXB.& V.wX).t.w.8.E X z.eXeXeXeXeXeXeXf.% v.qX).q.q.w.Q * g.eXeXeXeXeXeX",
"eXeXeXeXeXV.- V.wX_.w.-.9.) X , p i i p p i s > O M.qX.Xq.8.8.Q @ n.eXeXeXeXeXeX",
"eXeXeXeXeXV.& M.0X/.w.q.9.` t v V F C V V D N C C L.qX/.q.8.w.( * <.eXeXeXeXeXeX",
"eXeXeXeXeXS.O E s.q.q.7.9.7.=.~.4X2X2X3X9X2X8X4X8X_.i.u.e.8.w.W @ x.eXeXeXeXeXeX",
"eXeXeXeXeXP.K [ $.*.q.7.q.7.e./.8XqX0X8XqXqXqX0XqX/.e.w.5.O.#.` J D.eXeXeXeXeXeX",
"eXeXeXeXeXeXeXc.1 T 7.8.w.w.8.p.R.d.s.U.Y.d.s.T.E.p.7.6.y.Q 5 :.:XeXeXeXeXeXeXeX",
"eXeXeXeXeXeXeXP.M ] %.&...{ X.;.#.0.E.u.w.5.|  .X.;.&.{ $.[ h D.eXeXeXeXeXeXeXeX",
"eXeXeXeXeXeXeXeXeXB.8 = 1 1 q q ; N.qX(.e.) w 8 1 2 ; = 5 n.>XeXeXeXeXeXeXeXeXeX",
"eXeXeXeXeXeXeXeXeXeXA z c z M 8 # b.qX/.w.E $ 6 j z M m z F.eXeXeXeXeXeXeXeXeXeX",
"eXeXeXeXeXeXeXeXeXeXeXeXeXeXeXl.@ l.qX_.r.R # <.eXeXeXeXeXeXeXeXeXeXeXeXeXeXeXeX",
"eXeXeXeXeXeXeXeXeXeXeXeXeXeXeXS.+ n.qX/.r.) O M.eXeXeXeXeXeXeXeXeXeXeXeXeXeXeXeX",
"eXeXeXeXeXeXeXeXeXeXeXeXeXeXeXS.O m.qX}.w.T X G.eXeXeXeXeXeXeXeXeXeXeXeXeXeXeXeX",
"eXeXeXeXeXeXeXeXeXeXeXeXeXeXeXZ.* M.qX}.t.E @ >.eXeXeXeXeXeXeXeXeXeXeXeXeXeXeXeX",
"eXeXeXeXeXeXeXeXeXeXeXeXeXeXeXZ.O M.qX}.r.( $ 8 a d p a g K.eXeXeXeXeXeXeXeXeXeX",
"eXeXeXeXeXeXeXeXeXeXeXeXeXeXeXZ.% M.qX}.9.` r c N m M k X k.eXeXeXeXeXeXeXeXeXeX",
"eXeXeXeXeXeXeXeXeXeXeXeXeXeXeXZ.O l.qX|.8.-.4.W.qXqXqXS.- c.eXeXeXeXeXeXeXeXeXeX",
"eXeXeXeXeXeXeXeXeXeXeXeXeXeXeXZ.* n.qX|.7.5.u.~.qXqXqXF.& <.eXeXeXeXeXeXeXeXeXeX",
"eXeXeXeXeXeXeXeXeXeXeXeXeXeXeXV.& k.qX}.8.7.q.i.Y.T.T.` % n.eXeXeXeXeXeXeXeXeXeX",
"eXeXeXeXeXeXeXeXeXeXeXeXeXeXeXZ.O l.qX}.q.q.o.o.;.X. .H + l.eXeXeXeXeXeXeXeXeXeX",
"eXeXeXeXeXeXeXeXeXeXeXeXeXeXeXC.@ v.qX(.u.( w q w 5 w < o M.eXeXeXeXeXeXeXeXeXeX",
"eXeXeXeXeXeXeXeXeXeXeXeXeXeXeXJ.. z.+XW.2.H % , l j j l z F.eXeXeXeXeXeXeXeXeXeX",
"eXeXeXeXeXeXeXeXeXeXeXeXeXeXeXA.+ 4 n d w < O ,.eXeXeXeXeXeXeXeXeXeXeXeXeXeXeXeX",
"eXeXeXeXeXeXeXeXeXeXeXeXeXeXeXI.n b b z x z M D.eXeXeXeXeXeXeXeXeXeXeXeXeXeXeXeX",
"eXeXeXeXeXeXeXeXeXeXeXeXeXeXeXeXeXeXeXeXeXeXeXeXeXeXeXeXeXeXeXeXeXeXeXeXeXeXeXeX",
"eXeXeXeXeXeXeXeXeXeXeXeXeXeXeXeXeXeXeXeXeXeXeXeXeXeXeXeXeXeXeXeXeXeXeXeXeXeXeXeX",
"eXeXeXeXeXeXeXeXeXeXeXeXeXeXeXeXeXeXeXeXeXeXeXeXeXeXeXeXeXeXeXeXeXeXeXeXeXeXeXeX",
"eXeXeXeXeXeXeXeXeXeXeXeXeXeXeXeXeXeXeXeXeXeXeXeXeXeXeXeXeXeXeXeXeXeXeXeXeXeXeXeX",
};
