/* XPM */
static char *cf2415dd0b014f1ad78ef0f5cab2b5860SJTbY3M3Gay7dBr[] = {
/* columns rows colors chars-per-pixel */
"40 40 171 2 ",
"   c #553C38",
".  c #59443C",
"X  c #5D4C44",
"o  c #574948",
"O  c #5F5C44",
"+  c #584E51",
"@  c #5A5557",
"#  c #624A46",
"$  c #664F4B",
"%  c #615A46",
"&  c #65544D",
"*  c #69534E",
"=  c #645B4B",
"-  c #6A5C4D",
";  c #6A5550",
":  c #635A57",
">  c #6C5B52",
",  c #705C57",
"<  c #725C59",
"1  c #66654C",
"2  c #69694F",
"3  c #6E6252",
"4  c #706356",
"5  c #75635C",
"6  c #776E5C",
"7  c #6D7455",
"8  c #78725E",
"9  c #727C5A",
"0  c #5A5A61",
"q  c #635E64",
"w  c #5D626C",
"e  c #5E6975",
"r  c #606367",
"t  c #7B6663",
"y  c #7B6966",
"u  c #7F6B68",
"i  c #7C7560",
"p  c #7C7B65",
"a  c #616E7A",
"s  c #63707C",
"d  c #815C5C",
"f  c #8A6464",
"g  c #806C69",
"h  c #926D6E",
"j  c #83726D",
"k  c #837F68",
"l  c #936F70",
"z  c #867471",
"x  c #8A7775",
"c  c #877877",
"v  c #8B7A75",
"b  c #93C657",
"n  c #9D7475",
"m  c #907E7C",
"M  c #9D7F7F",
"N  c #A77B7D",
"B  c #76825E",
"V  c #798A62",
"C  c #7D9066",
"Z  c #7F9569",
"A  c #86836C",
"S  c #829B6D",
"D  c #93827F",
"F  c #859D70",
"G  c #919277",
"H  c #93957A",
"J  c #979A7E",
"K  c #87A272",
"L  c #8BAA77",
"P  c #8EAD7A",
"I  c #91B47E",
"U  c #667B8B",
"Y  c #7A7C82",
"T  c #687F90",
"R  c #6A8495",
"E  c #6A8698",
"W  c #6D8B9E",
"Q  c #6E8EA2",
"!  c #7194A9",
"~  c #7295AA",
"^  c #759EB4",
"/  c #76A0B8",
"(  c #79A6BE",
")  c #7BACC5",
"_  c #7CAEC8",
"`  c #948582",
"'  c #978886",
"]  c #9A8987",
"[  c #9C8C8A",
"{  c #999E80",
"}  c #AC888A",
"|  c #B38588",
" . c #A0918F",
".. c #A49493",
"X. c #A79996",
"o. c #AB9D9B",
"O. c #B19293",
"+. c #9DA284",
"@. c #95BB82",
"#. c #A0A686",
"$. c #A3AB8B",
"%. c #A6B18F",
"&. c #AFA19F",
"*. c #ADB895",
"=. c #AEB996",
"-. c #B1BE9A",
";. c #ACA3A3",
":. c #B1A4A2",
">. c #B7AAA8",
",. c #B9ADAB",
"<. c #BDB0AF",
"1. c #BEB3B2",
"2. c #C49498",
"3. c #D6A7AC",
"4. c #C0B5B3",
"5. c #C3B8B7",
"6. c #C6BCBA",
"7. c #C8BDBC",
"8. c #D5B3B5",
"9. c #9BC68A",
"0. c #9DC98B",
"q. c #A0CE8F",
"w. c #A1CF90",
"e. c #A2D191",
"r. c #A8D497",
"t. c #ACD69A",
"y. c #AFD99D",
"u. c #B8C6A1",
"i. c #BBCCA5",
"p. c #B4DBA2",
"a. c #B8DDA5",
"s. c #BFD1A9",
"d. c #BDDCA9",
"f. c #BEE0AC",
"g. c #C1D4AB",
"h. c #CAC0BE",
"j. c #C7DCB2",
"k. c #C9DDB3",
"l. c #C5E4B2",
"z. c #CAE3B5",
"x. c #CBE8B7",
"c. c #CDE4B9",
"v. c #CDE9BA",
"b. c #93C657",
"n. c #EBBEC3",
"m. c #CBC2C0",
"M. c #D0C7C6",
"N. c #D7C8C7",
"B. c #D4CCCB",
"V. c #DAD3D2",
"C. c #E7C5C9",
"Z. c #F3C3C8",
"A. c #FCCFD5",
"S. c #EDD7D9",
"D. c #E3DCDB",
"F. c #D4EEC1",
"G. c #D6F0C2",
"H. c #E6E0DF",
"J. c #E7E1E0",
"K. c #E9E4E3",
"L. c #ECE8E7",
"P. c #EDE9E8",
"I. c #F2E5E5",
"U. c #FBE2E5",
"Y. c #F3EEED",
"T. c #FEEBED",
"R. c #F3F0EF",
"E. c #F6F3F2",
"W. c #FAF6F5",
"Q. c #FAF8F7",
"!. c #FCFAF9",
/* pixels */
"b.b.b.b.b.b.b.b.b.b.b.b.b.b.b.b.b.b.b.b.b.b.b.b.b.b.b.b.b.b.b.b.b.b.b.b.b.b.b.b.",
"b.b.b.b.b.b.b.b.b.b.z.H A s.b.b.b.b.b.b.b.b.b.b.b.b.b.u.A +.c.b.b.b.b.b.b.b.b.b.",
"b.b.b.b.b.b.b.b.b.b.J + e > g.b.b.b.b.b.b.b.b.b.b.b.-.& w o -.b.b.b.b.b.b.b.b.b.",
"b.b.b.b.b.b.b.b.b.k.& R ) w 8 v.b.b.b.b.G.b.b.b.b.g.= T ) 0 A F.b.b.b.b.b.b.b.b.",
"b.b.b.b.b.b.b.b.G.=.+ ( ) ^ o { g.=.J J J #.-.k.z.8 e ) ) T : x.b.b.b.b.b.b.b.b.",
"b.b.b.b.b.b.b.b.b.8 a ) ) ) E o @ 0 a U U s r 3 - @ ( ) ) ^ o i.b.b.b.b.b.b.b.b.",
"b.b.b.b.b.b.b.b.g.o Q ) ) ) ) Q / ) _ W U ) ) ! U ^ ) ) ) ( + +.G.b.b.b.b.b.b.b.",
"b.b.b.b.b.b.b.k.k @ ) ) ) ) ) ) ( _ ! + . s ( _ _ ) ) ) ) ) U X $.b.b.b.b.b.b.b.",
"b.b.b.b.b.b.k.6 * s / ) ) ) _ ) ( T : 5.V.z 0 Q ) ) _ ) _ ) ) T o $.b.b.b.b.b.b.",
"b.b.b.b.b.c.6 y V.m : a R Q E a q b V.Q.!.Y.>.y 0 s E Q Q U w Y ;.X -.b.b.b.b.b.",
"b.b.b.b.b.H & D.!.W.V.:.` c ` :.V.W.!.Q.Q.Q.!.Y.B.:.] ` ] ..<.D.Q. .> k.b.b.b.b.",
"b.b.b.b.g.X 1.!.Q.W.!.!.Q.W.W.5.K.Q.Q.Q.Q.Q.Q.Q.B.K.!.Q.W.!.!.Q.Q.L.< + G.b.b.b.",
"b.b.b.b.G u E.Q.Q.Q.!.W.Q.Q.K.B.P.Q.Q.Q.Q.Q.Q.Q.D.K.!.W.Q.Q.Q.Q.Q.!.>.3 c b.b.b.",
"b.b.b.c.3 1.!.Q.Q.Q.W.!.!.h.g [ z D.Q.Q.Q.Q.!.B.` ` 7.!.Q.Q.Q.Q.Q.!.H.& u b.b.b.",
"b.b.b.s.> H.Q.Q.Q.W.Q.W.Q.x j 4.  o.!.Q.Q.Q.E.t  .:.& D.!.Q.Q.Q.Q.Q.E.z % b.b.b.",
"b.b.b.=.u E.Q.Q.Q.!.!.W.W.m   b   :.!.Q.W.!.Y.* < m o V.!.Q.Q.Q.Q.Q.!.] { b.b.b.",
"b.b.b.$.x Q.Q.Q.W.S.8.n.A.C.m ` b K.Q.Q.!.!.Q.:.t b b S.U.T.Q.Q.Q.Q.!...H b.b.b.",
"b.b.b.{ x Q.Q.Q.W.D d f N | D.K.E.!.Q.K.>.P.!.Q.D.B.O.n | 2.8.E.Q.Q.!.] H b.b.b.",
"b.b.b.+.g W.Q.Q.W.} n N h l I.!.Q.D.5.,.# V.B.Q.!.Y.l f f d h Y.Q.Q.Q.z H b.b.b.",
"b.b.b.-.; P.Q.W.W.I.Z.n.C.S.Q.Q.Q.K.] b b b >.Q.Q.E.C.3.3.3.N.W.Q.Q.P.> = b.b.b.",
"b.b.v.d.= 5.W.W.W.Q.Q.W.Q.!.Q.Q.Q.Q.Q.V.>.H.Q.Q.Q.Q.Q.W.T.W.Q.Q.Q.!.,.3 b.b.b.b.",
"b.b.b.r.V t W.W.Q.Q.Q.Q.Q.Q.Q.Q.Q.Q.Q.P.B.E.Q.Q.Q.Q.Q.Q.Q.Q.Q.Q.Q.J., %.b.b.b.b.",
"b.b.b.e.q.1 ..W.Q.Q.Q.Q.Q.Q.Q.Q.Q.Q.Q.!.Q.Q.Q.Q.Q.Q.Q.Q.Q.Q.Q.!.H.z B b.b.b.b.b.",
"b.b.b.e.r.@.1 ] K.Q.Q.Q.Q.Q.Q.Q.Q.Q.Q.Q.Q.Q.Q.Q.Q.Q.Q.Q.Q.Q.W.5.5 ..b.b.b.b.b.b.",
"b.b.b.b.b.b.9.2 5 K.Q.Q.Q.Q.Q.Q.Q.Q.Q.Q.Q.Q.Q.Q.Q.Q.Q.Q.Q.Q.E. .b b.b.b.b.b.b.b.",
"b.b.b.b.b.b.b.S 5 R.E.Q.Q.Q.Q.Q.Q.Q.Q.Q.Q.Q.Q.Q.Q.Q.Q.Q.Q.W.D.D 3 b.b.b.b.b.b.b.",
"b.b.b.b.b.b.b.Z z m...Q.Q.Q.Q.Q.Q.Q.Q.Q.Q.Q.Q.Q.Q.Q.Q.Q.W.Y.g M.z b.b.b.b.b.b.b.",
"b.b.b.b.b.e.r.S j 5.x Q.Q.Q.Q.Q.Q.Q.Q.Q.Q.Q.Q.Q.Q.Q.Q.Q.!.Y.< 7.g b.b.b.b.b.b.b.",
"b.b.b.b.b.b.b.I 4 v &.!.Q.Q.Q.Q.Q.Q.Q.Q.Q.Q.Q.Q.Q.Q.Q.Q.W.K.$ m.I b.b.b.b.b.b.b.",
"b.b.b.b.b.b.b.e.P % ` Q.Q.Q.Q.Q.Q.Q.Q.Q.Q.Q.Q.Q.Q.Q.Q.Q.!.M.. p b.b.b.b.b.b.b.b.",
"b.b.b.b.b.b.b.b.r.C x Q.Q.Q.Q.Q.Q.Q.Q.Q.Q.Q.Q.Q.Q.Q.Q.Q.!.5.b r.b.b.b.b.b.b.b.b.",
"b.b.b.b.b.b.b.b.e.S j Q.Q.Q.Q.Q.Q.Q.Q.Q.Q.Q.Q.Q.Q.Q.W.!.!.1.1 e.b.b.b.b.b.b.b.b.",
"b.b.b.b.b.b.b.b.e.P 5 Y.!.!.Q.Q.Q.Q.Q.!.Q.Q.Q.Q.Q.Q.Q.Q.!.o.7 b.b.b.b.b.b.b.b.b.",
"b.b.b.b.b.b.b.b.b.9.% 6.7.7.P.W.Q.!.!.!.!.!.!.!.!.!.Q.P.L.] b b.b.b.e.b.b.b.b.b.",
"b.b.b.b.b.b.b.b.b.e.% <.A . 3 u A [ X.o.>.;.o...[ ` v ; ` ..b b.b.b.b.b.b.b.b.b.",
"b.b.b.b.b.b.b.b.b.e.2 >.b Z @.P L S C V 9 7 9 V S L I % ..o.b b.e.b.b.b.b.b.b.b.",
"b.b.b.b.b.b.b.b.b.e.V t b b.b.b.b.b.b.b.b.b.e.b.b.b.b.7 x z L b.b.b.b.b.b.b.b.b.",
"b.b.b.b.b.b.b.b.y.r.0.K b b.b.b.b.b.b.b.b.b.b.b.b.b.e.@.9 b b.b.b.b.b.b.b.b.b.b.",
"b.b.b.b.b.b.b.b.b.b.b.b.b.b.b.b.b.b.b.b.b.b.b.b.b.b.b.b.b.b.b.b.b.b.b.b.b.b.b.b.",
"b.b.b.b.b.b.b.b.b.b.b.b.b.b.b.b.b.b.b.b.b.b.b.b.b.b.b.b.b.b.b.b.b.b.b.b.b.b.b.b."
};
