/* XPM */
static char *_9304277339d45e7a6d512f1442fd4a8bPm3UuvoWb2trPJf[] = {
/* columns rows colors chars-per-pixel */
"40 40 131 2 ",
"   c #93C657",
".  c black",
"X  c #040202",
"o  c #050303",
"O  c #010700",
"+  c #070504",
"@  c #0A0706",
"#  c #010800",
"$  c #010900",
"%  c #020A00",
"&  c #020B00",
"*  c #020C00",
"=  c #020D00",
"-  c #0C0807",
";  c #0C0907",
":  c #0D0907",
">  c #140D0C",
",  c #160F0D",
"<  c #031200",
"1  c #031400",
"2  c #041801",
"3  c #041A01",
"4  c #041B01",
"5  c #041C01",
"6  c #051D01",
"7  c #211613",
"8  c #221714",
"9  c #271A17",
"0  c #291D18",
"q  c #2D1F1B",
"w  c #062401",
"e  c #062501",
"r  c #062601",
"t  c #062801",
"y  c #062901",
"u  c #062A01",
"i  c #072A01",
"p  c #062B01",
"a  c #072B01",
"s  c #072C01",
"d  c #072D01",
"f  c #072E01",
"g  c #073201",
"h  c #083001",
"j  c #083201",
"k  c #053903",
"l  c #053A03",
"z  c #053D03",
"x  c #093A01",
"c  c #0A3D01",
"v  c #0A3F02",
"b  c #352520",
"n  c #3B2923",
"m  c #3C2A24",
"M  c #422E27",
"N  c #422F27",
"B  c #432D28",
"V  c #422F28",
"C  c #462F29",
"Z  c #48312B",
"A  c #4B322C",
"S  c #4F342E",
"D  c #4F352F",
"F  c #50352F",
"G  c #533831",
"H  c #0A4102",
"J  c #0A4302",
"K  c #0B4502",
"L  c #0B4702",
"P  c #0B4802",
"I  c #0B4902",
"U  c #0C4A02",
"Y  c #0C4B02",
"T  c #0C4C02",
"R  c #0C4D02",
"E  c #0C4E02",
"W  c #0C4F02",
"Q  c #0D5102",
"!  c #0D5202",
"~  c #0D5302",
"^  c #0D5402",
"/  c #0D5502",
"(  c #0D5602",
")  c #0D5702",
"_  c #0D5703",
"`  c #0D5802",
"'  c #0D5803",
"]  c #0D5903",
"[  c #0D5A03",
"{  c #0C5B03",
"}  c #0C5C03",
"|  c #0C5D03",
" . c #0C5E03",
".. c #0C5F03",
"X. c #0B5E04",
"o. c #0B6104",
"O. c #0C6304",
"+. c #0C6404",
"@. c #0C6504",
"#. c #0C6604",
"$. c #0C6704",
"%. c #0B6905",
"&. c #0B6A05",
"*. c #0B6B05",
"=. c #0C6804",
"-. c #0B6C05",
";. c #0B6D05",
":. c #0B7206",
">. c #0B7306",
",. c #0B7406",
"<. c #0B7506",
"1. c #0B7606",
"2. c #0A7706",
"3. c #0A7806",
"4. c #0A7906",
"5. c #0B7906",
"6. c #0A7A06",
"7. c #0A7A07",
"8. c #0A7B07",
"9. c #0A7C07",
"0. c #0A7D07",
"q. c #0A7E07",
"w. c #0A7F07",
"e. c #6A4A3F",
"r. c #725044",
"t. c #735144",
"y. c #735145",
"u. c #7B5749",
"i. c #7C574A",
"p. c #7E584B",
"a. c #0A8007",
/* pixels */
"                          . . . . . . . . . .                                   ",
"                          . . . . . . . . . .                                   ",
"                        2 t f k z z z k f w 5                                   ",
"                    . . t ^ ' 6.w.w.w.w.] ^ f . .                               ",
"                    # # f ' { 1.6.7.7.1.| ^ g O #                               ",
"                . # H P | 1.1.| ] ] ] | 1.6.o.L H = .                           ",
"                . # P / *.w.7._ ~ ~ ~ ^ 6.w.*.~ E = . .                         ",
"              2 w t E Q #.w.7.*.@.@.@.*.7.w.*.~ E f w 2                         ",
"          . . w ^ ^ ^ ^ #.w.w.w.w.w.w.w.w.a.=.~ ~ ^ ^ s . .                     ",
"          . . t ^ ^ ^ ' #.6.6.w.w.7.6.6.7.7.=._ _ ^ ^ a . .                     ",
"          . . w ^ ] 1.6.*._ { 6.w.=._ ] ] ] =.6.1.] ^ a . .                     ",
"          . . w ^ ^ 6.w.*.Q / 1.w.=.E ~ ~ ~ @.w.7.] ^ t . .                     ",
"        O w w x ~ ] 6.w.:.#.#.7.w.:.@.@.@.@.>.w.9.] ^ x w w #                   ",
"      . # P ^ ^ ~ _ 6.w.w.w.w.w.w.w.w.a.w.w.a.w.8.] ^ ^ ^ E = . .               ",
"      . # L ^ ^ ^ ] 1.7.7.w.w.w.7.7.w.w.w.7.7.7.1.| ^ ^ ^ Y = . .               ",
"      . # L ~ O.6.1.| ] *.w.7.| ] *.w.7.| ] ] ] | >.5.@.~ Y # . .               ",
"      . O L ^ @.a.7.] ~ @.w.7._ Q =.a.7.] Q Q Q _ 6.a.*.~ Y # . .               ",
"    5 t f E ^ | *.*.@.@.:.w.7.*.@.,.w.w.-.@.=.=.@.*.*.| ~ E s t 5               ",
". . t ^ ~ ~ ^ ~ ~ _ 6.w.w.w.7.w.w.w.w.7.7.w.w.w.7.] ~ ^ ^ ^ ^ ^ f . .           ",
". . t ^ ^ ^ ] ^ ~ _ 1.7.7.w.w.w.7.w.w.w.w.w.w.7.1.] ~ ^ _ ' ^ ^ f . .           ",
". . t ^ ^ 1.6.@.~ ~ _ _ -.w.w.w.w.w.w.w.w.w.-.] _ ~ ~ @.6.1._ ~ f . .           ",
". . t ^ ] 6.w.*.~ ~ ~ ~ @.w.w.w.w.w.w.w.w.w.*.Q ~ ~ ~ =.a.7.] ^ f . .           ",
". . t ^ ^ @.*.*.@.@.@.@.@.*.*.*.*.1.w.7.=.*.*.@.@.@.@.=.=.=.^ ^ f . .           ",
". . t ^ ~ ~ ~ @.w.w.w.w.*.~ ~ ~ E @.w.6.] Q @.w.w.w.w.*.^ ^ ^ ^ f . .           ",
". . t Y Y ~ ~ O.5.6.6.6.=.] _ _ _ *.w.7.| ' @.6.6.6.w.@.~ ~ Y Y f . .           ",
"    # = < P ^ ^ ] ] _ _ @.7.6.7.6.7.w.w.6.7.=.] ] _ ] ^ ~ Y 1 # #               ",
"      . # Y ^ ^ ^ ^ ~ ~ =.a.a.w.w.w.w.w.w.a.=.^ ~ ^ ^ ^ ^ Y = . .               ",
"      . # t t f s s E ~ | =.-.*.*.*.*.*.*.=.| ~ E j t s s a # .                 ",
"          . . . . & Y ~ ~ ~ ~ ~ ~ ~ ~ ~ ~ ~ ~ ^ E = . . . .                     ",
"          . . . . # H E Y Y Y Y Y Y Y Y Y Y Y Y K = . . . .                     ",
"                    = = # = = = = = # # = = = = #                               ",
"                    . . . . . . . . . . . . . . .                               ",
"                      . . . X 7 9 9 9 8 o . . .                                 ",
"                          . + B F D D C @ . .                                   ",
"                        @ @ > Z G G G A , ; ;                                   ",
"                    . . b e.r.r.r.r.r.r.e.e.m . .                               ",
"                    . . n p.i.i.i.i.i.u.i.p.B . .                               ",
"                      . 9 M M M M M M M M N q .                                 ",
"                          . . . . . . . . . .                                   ",
"                          . . . . . . . . . .                                   "
};
